<svg width="348" height="69" viewBox="0 0 348 69" fill="none" xmlns="http://www.w3.org/2000/svg">
<path d="M37.7356 46.5194L45.8713 12.1528H50.4161L51.4542 17.8759L42.7854 53H37.9039L37.7356 46.5194ZM33.5555 12.1528L40.2885 46.5194L39.7274 53H34.2849L25.2233 12.1528H33.5555ZM58.608 46.3792L65.2569 12.1528H73.5891L64.5555 53H59.113L58.608 46.3792ZM52.9691 12.1528L61.161 46.6597L60.9365 53H56.0551L47.3302 17.8479L48.4523 12.1528H52.9691ZM93.0868 46.1547V32.6325C93.0868 31.66 92.9279 30.8277 92.6099 30.1357C92.292 29.425 91.7963 28.8732 91.123 28.4805C90.4684 28.0877 89.6175 27.8913 88.5701 27.8913C87.6723 27.8913 86.8962 28.0503 86.2416 28.3683C85.587 28.6675 85.082 29.107 84.7266 29.6868C84.3713 30.2479 84.1936 30.9119 84.1936 31.6787H76.1139C76.1139 30.3882 76.4132 29.1631 77.0117 28.0036C77.6102 26.844 78.4799 25.8247 79.6207 24.9456C80.7616 24.0479 82.1176 23.3465 83.6886 22.8415C85.2784 22.3366 87.0552 22.0841 89.019 22.0841C91.3755 22.0841 93.4703 22.4768 95.3031 23.2624C97.136 24.0479 98.5761 25.2262 99.6235 26.7972C100.69 28.3683 101.223 30.3321 101.223 32.6886V45.6778C101.223 47.3424 101.325 48.7077 101.531 49.7737C101.737 50.8211 102.036 51.7376 102.429 52.5231V53H94.2651C93.8724 52.1771 93.5731 51.1484 93.3674 49.914C93.1804 48.6609 93.0868 47.4078 93.0868 46.1547ZM94.1529 34.5122L94.209 39.085H89.6923C88.6262 39.085 87.7004 39.2066 86.9149 39.4497C86.1294 39.6929 85.4841 40.0389 84.9791 40.4877C84.4741 40.9179 84.1001 41.4229 83.857 42.0027C83.6325 42.5825 83.5203 43.2184 83.5203 43.9104C83.5203 44.6024 83.6793 45.2289 83.9972 45.79C84.3152 46.3324 84.7734 46.7626 85.3719 47.0805C85.9704 47.3798 86.6717 47.5294 87.476 47.5294C88.6917 47.5294 89.7484 47.2863 90.6461 46.8C91.5439 46.3137 92.2359 45.7152 92.7221 45.0045C93.2271 44.2938 93.489 43.6205 93.5077 42.9846L95.6398 46.4072C95.3405 47.174 94.9291 47.9689 94.4054 48.7918C93.9004 49.6148 93.2552 50.3909 92.4696 51.1204C91.6841 51.8311 90.7396 52.4202 89.6362 52.8878C88.5327 53.3367 87.2235 53.5611 85.7085 53.5611C83.7821 53.5611 82.0334 53.1777 80.4624 52.4109C78.91 51.6253 77.6756 50.5499 76.7592 49.1846C75.8615 47.8006 75.4126 46.2295 75.4126 44.4715C75.4126 42.8817 75.7118 41.4697 76.3103 40.2353C76.9088 39.0009 77.7879 37.9629 78.9474 37.1212C80.1257 36.2609 81.5939 35.6156 83.352 35.1855C85.11 34.7366 87.1487 34.5122 89.4678 34.5122H94.1529ZM115.979 22.6452V53H107.871V22.6452H115.979ZM107.367 14.7338C107.367 13.5556 107.778 12.583 108.601 11.8162C109.424 11.0494 110.527 10.666 111.911 10.666C113.277 10.666 114.371 11.0494 115.194 11.8162C116.035 12.583 116.456 13.5556 116.456 14.7338C116.456 15.9121 116.035 16.8847 115.194 17.6515C114.371 18.4183 113.277 18.8017 111.911 18.8017C110.527 18.8017 109.424 18.4183 108.601 17.6515C107.778 16.8847 107.367 15.9121 107.367 14.7338ZM137.525 22.6452V28.3683H119.851V22.6452H137.525ZM124.227 15.1547H132.307V43.8543C132.307 44.7333 132.419 45.4066 132.644 45.8742C132.887 46.3418 133.242 46.6691 133.71 46.8561C134.177 47.0244 134.766 47.1086 135.477 47.1086C135.982 47.1086 136.431 47.0899 136.824 47.0525C137.235 46.9964 137.581 46.9403 137.862 46.8841L137.89 52.8317C137.198 53.0561 136.45 53.2338 135.645 53.3647C134.841 53.4956 133.953 53.5611 132.98 53.5611C131.203 53.5611 129.651 53.2712 128.323 52.6914C127.014 52.0929 126.004 51.1391 125.293 49.8299C124.583 48.5207 124.227 46.8 124.227 44.6679V15.1547ZM156.097 53.5611C153.74 53.5611 151.627 53.187 149.757 52.4389C147.886 51.6721 146.297 50.6154 144.987 49.2688C143.697 47.9222 142.706 46.3605 142.014 44.5837C141.322 42.7882 140.976 40.8805 140.976 38.8606V37.7384C140.976 35.438 141.303 33.3339 141.958 31.4262C142.612 29.5185 143.547 27.8633 144.763 26.4606C145.997 25.0578 147.494 23.9824 149.252 23.2343C151.01 22.4675 152.992 22.0841 155.199 22.0841C157.35 22.0841 159.258 22.4394 160.922 23.1501C162.587 23.8609 163.98 24.8708 165.102 26.18C166.243 27.4892 167.104 29.0603 167.683 30.8932C168.263 32.7073 168.553 34.7273 168.553 36.9529V40.3194H144.426V34.933H160.614V34.3158C160.614 33.1936 160.408 32.193 159.997 31.314C159.604 30.4162 159.005 29.7055 158.201 29.1818C157.397 28.6582 156.368 28.3963 155.115 28.3963C154.049 28.3963 153.133 28.6301 152.366 29.0977C151.599 29.5652 150.972 30.2198 150.486 31.0615C150.019 31.9031 149.663 32.8944 149.42 34.0352C149.196 35.1574 149.083 36.3918 149.083 37.7384V38.8606C149.083 40.0763 149.252 41.1985 149.588 42.2271C149.944 43.2558 150.439 44.1442 151.075 44.8923C151.73 45.6404 152.515 46.2202 153.432 46.6317C154.367 47.0431 155.424 47.2489 156.602 47.2489C158.061 47.2489 159.417 46.9683 160.67 46.4072C161.942 45.8274 163.036 44.9577 163.952 43.7982L167.88 48.0624C167.244 48.9789 166.374 49.8579 165.271 50.6995C164.186 51.5412 162.877 52.2332 161.343 52.7756C159.809 53.2992 158.061 53.5611 156.097 53.5611ZM181.234 29.266V53H173.154V22.6452H180.757L181.234 29.266ZM190.379 22.4488L190.239 29.9393C189.846 29.8832 189.369 29.8364 188.808 29.799C188.266 29.7429 187.77 29.7149 187.321 29.7149C186.181 29.7149 185.189 29.8645 184.348 30.1637C183.525 30.4443 182.833 30.8651 182.272 31.4262C181.729 31.9873 181.318 32.6699 181.037 33.4742C180.775 34.2784 180.626 35.1948 180.588 36.2235L178.961 35.7185C178.961 33.7547 179.158 31.9499 179.55 30.304C179.943 28.6395 180.514 27.19 181.262 25.9556C182.029 24.7212 182.964 23.7673 184.067 23.094C185.171 22.4207 186.433 22.0841 187.855 22.0841C188.303 22.0841 188.762 22.1215 189.229 22.1963C189.697 22.2524 190.08 22.3366 190.379 22.4488Z" fill="white"/>
<g filter="url(#filter0_d_1_290)">
<path d="M234.798 46.1547V32.6325C234.798 31.66 234.639 30.8277 234.321 30.1357C234.003 29.425 233.507 28.8732 232.834 28.4805C232.179 28.0877 231.328 27.8913 230.281 27.8913C229.383 27.8913 228.607 28.0503 227.952 28.3683C227.298 28.6675 226.793 29.107 226.437 29.6868C226.082 30.2479 225.904 30.9119 225.904 31.6787H217.825C217.825 30.3882 218.124 29.1631 218.723 28.0036C219.321 26.844 220.191 25.8247 221.332 24.9456C222.472 24.0479 223.828 23.3465 225.399 22.8415C226.989 22.3366 228.766 22.0841 230.73 22.0841C233.086 22.0841 235.181 22.4768 237.014 23.2624C238.847 24.0479 240.287 25.2262 241.334 26.7972C242.4 28.3683 242.933 30.3321 242.933 32.6886V45.6778C242.933 47.3424 243.036 48.7077 243.242 49.7737C243.448 50.8211 243.747 51.7376 244.14 52.5231V53H235.976C235.583 52.1771 235.284 51.1484 235.078 49.914C234.891 48.6609 234.798 47.4078 234.798 46.1547ZM235.864 34.5122L235.92 39.085H231.403C230.337 39.085 229.411 39.2066 228.626 39.4497C227.84 39.6929 227.195 40.0389 226.69 40.4877C226.185 40.9179 225.811 41.4229 225.568 42.0027C225.343 42.5825 225.231 43.2184 225.231 43.9104C225.231 44.6024 225.39 45.2289 225.708 45.79C226.026 46.3324 226.484 46.7626 227.083 47.0805C227.681 47.3798 228.383 47.5294 229.187 47.5294C230.403 47.5294 231.459 47.2863 232.357 46.8C233.255 46.3137 233.947 45.7152 234.433 45.0045C234.938 44.2938 235.2 43.6205 235.219 42.9846L237.351 46.4072C237.051 47.174 236.64 47.9689 236.116 48.7918C235.611 49.6148 234.966 50.3909 234.18 51.1204C233.395 51.8311 232.45 52.4202 231.347 52.8878C230.244 53.3367 228.934 53.5611 227.419 53.5611C225.493 53.5611 223.744 53.1777 222.173 52.4109C220.621 51.6253 219.386 50.5499 218.47 49.1846C217.572 47.8006 217.123 46.2295 217.123 44.4715C217.123 42.8817 217.423 41.4697 218.021 40.2353C218.62 39.0009 219.499 37.9629 220.658 37.1212C221.837 36.2609 223.305 35.6156 225.063 35.1855C226.821 34.7366 228.86 34.5122 231.179 34.5122H235.864ZM257.241 28.4805V64.6706H249.162V22.6452H256.652L257.241 28.4805ZM276.458 37.4859V38.0751C276.458 40.282 276.197 42.33 275.673 44.219C275.168 46.108 274.42 47.7538 273.429 49.1566C272.437 50.5406 271.203 51.6253 269.725 52.4109C268.267 53.1777 266.583 53.5611 264.676 53.5611C262.824 53.5611 261.216 53.187 259.85 52.4389C258.485 51.6908 257.335 50.6434 256.4 49.2968C255.483 47.9315 254.744 46.3511 254.183 44.5556C253.622 42.7602 253.192 40.8338 252.893 38.7764V37.2334C253.192 35.0265 253.622 33.0066 254.183 31.1737C254.744 29.3221 255.483 27.723 256.4 26.3764C257.335 25.0111 258.476 23.9544 259.822 23.2063C261.188 22.4581 262.787 22.0841 264.619 22.0841C266.546 22.0841 268.239 22.4488 269.697 23.1782C271.175 23.9076 272.409 24.955 273.401 26.3203C274.41 27.6856 275.168 29.3128 275.673 31.2018C276.197 33.0907 276.458 35.1855 276.458 37.4859ZM268.351 38.0751V37.4859C268.351 36.1954 268.239 35.0078 268.014 33.923C267.808 32.8196 267.472 31.8564 267.004 31.0334C266.555 30.2105 265.957 29.5746 265.209 29.1257C264.479 28.6582 263.591 28.4244 262.543 28.4244C261.44 28.4244 260.495 28.602 259.71 28.9574C258.943 29.3128 258.317 29.8271 257.83 30.5004C257.344 31.1737 256.979 31.9779 256.736 32.9131C256.493 33.8482 256.343 34.9049 256.287 36.0832V39.9828C256.381 41.3668 256.643 42.6105 257.073 43.714C257.503 44.7988 258.167 45.6591 259.065 46.295C259.962 46.9309 261.141 47.2489 262.6 47.2489C263.666 47.2489 264.563 47.0151 265.293 46.5475C266.022 46.0612 266.611 45.3973 267.06 44.5556C267.528 43.714 267.855 42.7415 268.042 41.638C268.248 40.5345 268.351 39.3469 268.351 38.0751ZM289.56 28.4805V64.6706H281.48V22.6452H288.971L289.56 28.4805ZM308.777 37.4859V38.0751C308.777 40.282 308.515 42.33 307.992 44.219C307.487 46.108 306.738 47.7538 305.747 49.1566C304.756 50.5406 303.522 51.6253 302.044 52.4109C300.585 53.1777 298.902 53.5611 296.994 53.5611C295.143 53.5611 293.534 53.187 292.169 52.4389C290.804 51.6908 289.653 50.6434 288.718 49.2968C287.802 47.9315 287.063 46.3511 286.502 44.5556C285.941 42.7602 285.511 40.8338 285.211 38.7764V37.2334C285.511 35.0265 285.941 33.0066 286.502 31.1737C287.063 29.3221 287.802 27.723 288.718 26.3764C289.653 25.0111 290.794 23.9544 292.141 23.2063C293.506 22.4581 295.105 22.0841 296.938 22.0841C298.865 22.0841 300.557 22.4488 302.016 23.1782C303.494 23.9076 304.728 24.955 305.719 26.3203C306.729 27.6856 307.487 29.3128 307.992 31.2018C308.515 33.0907 308.777 35.1855 308.777 37.4859ZM300.669 38.0751V37.4859C300.669 36.1954 300.557 35.0078 300.333 33.923C300.127 32.8196 299.79 31.8564 299.323 31.0334C298.874 30.2105 298.275 29.5746 297.527 29.1257C296.798 28.6582 295.909 28.4244 294.862 28.4244C293.759 28.4244 292.814 28.602 292.029 28.9574C291.262 29.3128 290.635 29.8271 290.149 30.5004C289.663 31.1737 289.298 31.9779 289.055 32.9131C288.812 33.8482 288.662 34.9049 288.606 36.0832V39.9828C288.699 41.3668 288.961 42.6105 289.392 43.714C289.822 44.7988 290.486 45.6591 291.383 46.295C292.281 46.9309 293.459 47.2489 294.918 47.2489C295.984 47.2489 296.882 47.0151 297.611 46.5475C298.341 46.0612 298.93 45.3973 299.379 44.5556C299.846 43.714 300.174 42.7415 300.361 41.638C300.566 40.5345 300.669 39.3469 300.669 38.0751Z" fill="#FF3F4B"/>
</g>
<defs>
<filter id="filter0_d_1_290" x="211.338" y="15.6555" width="101.939" height="52.8723" filterUnits="userSpaceOnUse" color-interpolation-filters="sRGB">
<feFlood flood-opacity="0" result="BackgroundImageFix"/>
<feColorMatrix in="SourceAlpha" type="matrix" values="0 0 0 0 0 0 0 0 0 0 0 0 0 0 0 0 0 0 127 0" result="hardAlpha"/>
<feOffset dx="-0.642857" dy="-1.28571"/>
<feGaussianBlur stdDeviation="2.57143"/>
<feComposite in2="hardAlpha" operator="out"/>
<feColorMatrix type="matrix" values="0 0 0 0 0 0 0 0 0 0 0 0 0 0 0 0 0 0 0.5 0"/>
<feBlend mode="normal" in2="BackgroundImageFix" result="effect1_dropShadow_1_290"/>
<feBlend mode="normal" in="SourceGraphic" in2="effect1_dropShadow_1_290" result="shape"/>
</filter>
</defs>
</svg>
